<?xml version="1.0" standalone="no"?>
<!DOCTYPE svg PUBLIC "-//W3C//DTD SVG 1.1//EN" "http://www.w3.org/Graphics/SVG/1.1/DTD/svg11.dtd">
<!--Generator: Xara Designer (www.xara.com), SVG filter version: 6.0.0.4-->
<svg stroke-width="0.501" stroke-linejoin="bevel" fill-rule="evenodd" xmlns:xlink="http://www.w3.org/1999/xlink" xmlns="http://www.w3.org/2000/svg" version="1.1" overflow="visible" width="498.899pt" height="498.899pt" viewBox="0 0 498.899 498.899">
 <defs>
  <linearGradient id="LinearGradient" gradientUnits="userSpaceOnUse" x1="0" y1="0" x2="480.636" y2="0" gradientTransform="translate(379.739 30.572) rotate(90)">
   <stop offset="0" stop-color="#ef783d"/>
   <stop offset="0.352000027894974" stop-color="#ed6a3c"/>
   <stop offset="0.704999983310699" stop-color="#f3903f"/>
   <stop offset="1" stop-color="#fdc70c"/>
  </linearGradient>
  <linearGradient id="LinearGradient_1" gradientUnits="userSpaceOnUse" x1="0" y1="0" x2="497.808" y2="0" gradientTransform="translate(117.175 490.09) rotate(-90)">
   <stop offset="0" stop-color="#0034c2"/>
   <stop offset="0.352000027894974" stop-color="#ed6a3c"/>
   <stop offset="0.704999983310699" stop-color="#f3903f"/>
   <stop offset="1" stop-color="#fdc70c"/>
  </linearGradient>
 </defs>
 <g id="Document" fill="none" stroke="black" font-family="Times New Roman" font-size="16" transform="scale(1 -1)">
  <g id="Spread" transform="translate(0 -498.899)">
   <g id="Layer 1">
    <path d="M 312.241,69.368 C 426.297,122.579 472.478,189.217 471.653,266.702 C 467.53,362.784 413.921,403.06 313.318,422.447 L 323.465,384.89 C 325.318,382.525 325.541,379.444 324.053,376.88 C 322.56,374.321 319.594,372.697 316.344,372.667 C 313.094,372.637 310.088,374.2 308.537,376.731 L 262.523,443.043 C 262.412,443.207 262.412,443.402 262.305,443.571 C 262.048,444.044 261.845,444.533 261.7,445.035 C 261.52,445.541 261.404,446.066 261.348,446.594 C 261.348,446.788 261.224,446.959 261.224,447.152 C 261.271,447.443 261.335,447.724 261.416,448.005 C 261.477,448.53 261.597,449.054 261.768,449.561 C 261.949,450.023 262.181,450.471 262.454,450.898 C 262.703,451.328 262.994,451.731 263.333,452.106 C 263.728,452.507 264.165,452.871 264.641,453.198 C 264.903,453.377 265.07,453.624 265.362,453.787 L 340.165,494.546 C 344.265,496.552 349.418,495.351 351.879,491.816 C 354.335,488.284 353.234,483.66 349.375,481.312 L 321.564,454.99 C 432.513,442.761 495.569,358.91 493.095,260.503 C 489.795,160.662 409.803,85.388 323.214,55.942 C 322.635,55.843 314.544,53.994 313.956,53.99 C 309.458,54.005 305.702,57.027 305.252,60.996 C 304.798,64.963 307.799,68.589 312.198,69.398 Z M 312.241,69.368" stroke="none" stroke-width="0.998" fill-rule="evenodd" stroke-linejoin="miter" stroke-miterlimit="79.8403193612775" fill="url(#LinearGradient)"/>
    <g id="Group" fill-rule="nonzero" stroke-linejoin="round" stroke-linecap="round" stroke="none" stroke-width="0.666" fill="#3741a3" stroke-miterlimit="79.8403193612775">
     <g id="Group_1">
      <path d="M 75.653,292.696 C 77.027,298.384 78.819,304.324 81.035,310.512 C 83.251,316.699 85.575,323.011 88.009,329.449 C 90.443,335.89 92.848,342.438 95.218,349.091 C 97.59,355.75 99.617,362.391 101.303,369.016 C 101.739,370.643 102.115,372.144 102.426,373.518 C 102.738,374.894 103.049,376.361 103.364,377.923 C 104.112,379.547 105.127,380.798 106.405,381.673 C 107.686,382.548 109.076,382.986 110.572,382.986 C 111.946,382.986 113.241,382.767 114.457,382.329 C 115.674,381.892 116.734,381.188 117.64,380.219 C 118.545,379.251 119.264,378.019 119.794,376.518 C 120.324,375.019 120.59,373.238 120.59,371.173 C 120.59,368.922 120.247,366.36 119.56,363.484 C 117.126,357.236 114.66,351.11 112.162,345.106 C 109.667,339.109 107.249,333.234 104.908,327.482 C 102.567,321.731 100.397,316.042 98.4,310.417 C 96.403,304.791 94.688,299.228 93.253,293.729 C 93.127,293.291 92.877,292.337 92.504,290.866 C 92.129,289.397 91.737,287.631 91.333,285.57 C 90.925,283.506 90.568,281.303 90.257,278.961 C 89.945,276.617 89.788,274.352 89.788,272.164 C 89.788,270.665 89.881,269.241 90.07,267.897 C 90.257,266.552 90.568,265.381 91.005,264.381 C 91.442,263.381 92.036,262.6 92.784,262.037 C 93.532,261.475 94.47,261.195 95.593,261.195 C 97.966,261.195 100.866,262.427 104.298,264.896 C 107.731,267.366 111.446,270.726 115.44,274.975 C 119.435,279.226 123.538,284.194 127.751,289.883 C 131.964,295.571 136.067,301.667 140.062,308.167 C 144.056,314.669 147.771,321.355 151.203,328.23 C 154.636,335.105 157.536,341.888 159.908,348.577 C 160.47,349.764 161.157,350.528 161.97,350.872 C 162.779,351.217 163.842,351.39 165.152,351.39 C 167.586,351.39 169.628,350.657 171.284,349.187 C 172.938,347.717 173.766,345.827 173.764,343.514 C 173.766,342.951 173.702,342.419 173.577,341.92 C 173.452,341.418 173.266,340.826 173.015,340.138 L 171.705,336.295 C 170.707,333.356 169.756,330.655 168.851,328.186 C 167.945,325.716 167.21,323.387 166.648,321.201 C 165.839,318.075 165.184,315.213 164.683,312.621 C 164.185,310.026 163.796,307.588 163.514,305.308 C 163.234,303.026 163.045,300.79 162.952,298.604 C 162.856,296.413 162.811,294.196 162.811,291.947 C 162.811,291.07 162.888,289.789 163.045,288.101 C 163.202,286.416 163.437,284.556 163.748,282.525 C 164.06,280.493 164.481,278.427 165.011,276.334 C 165.541,274.242 166.164,272.319 166.883,270.569 C 167.599,268.82 168.443,267.398 169.41,266.304 C 170.379,265.208 171.487,264.661 172.736,264.661 C 174.669,264.661 176.712,265.459 178.866,267.053 C 181.018,268.648 183.188,270.835 185.374,273.618 C 187.558,276.396 189.757,279.662 191.973,283.415 C 194.188,287.164 196.343,291.197 198.433,295.51 C 200.523,299.822 202.521,304.289 204.425,308.917 C 206.329,313.541 208.076,318.12 209.668,322.651 C 211.258,327.185 212.661,331.561 213.881,335.778 C 215.098,340 216.08,343.859 216.829,347.358 C 217.516,350.67 218.11,353.889 218.607,357.014 C 219.108,360.14 219.609,363.266 220.107,366.392 C 220.607,369.517 221.153,372.659 221.744,375.814 C 222.338,378.972 223.071,382.206 223.944,385.519 C 224.256,386.706 224.724,387.924 225.347,389.175 C 225.973,390.425 226.737,391.565 227.643,392.597 C 228.548,393.627 229.531,394.471 230.591,395.127 C 231.653,395.787 232.745,396.114 233.869,396.112 C 236.675,396.114 238.579,395.349 239.578,393.816 C 240.577,392.284 241.077,389.737 241.077,386.175 C 241.077,383.55 240.843,380.487 240.374,376.985 C 239.908,373.486 239.314,369.814 238.595,365.97 C 237.876,362.125 237.08,358.233 236.207,354.298 C 235.333,350.357 234.46,346.64 233.586,343.139 C 231.84,336.015 229.531,328.623 226.66,320.965 C 223.79,313.306 220.591,305.836 217.063,298.555 C 213.537,291.272 209.79,284.413 205.828,277.975 C 201.866,271.536 197.887,266.005 193.893,261.381 C 192.519,259.757 190.897,258.101 189.025,256.413 C 187.153,254.724 185.14,253.194 182.985,251.817 C 180.834,250.444 178.65,249.303 176.432,248.396 C 174.216,247.49 172.078,247.036 170.02,247.036 C 165.714,247.036 162.108,248.302 159.205,250.834 C 156.303,253.364 153.933,256.739 152.093,260.96 C 150.25,265.176 148.847,269.99 147.88,275.398 C 146.913,280.804 146.21,286.384 145.774,292.133 C 142.277,286.946 139.079,282.32 136.176,278.257 C 133.276,274.193 130.326,270.444 127.33,267.005 C 125.083,264.443 122.555,261.678 119.746,258.709 C 116.937,255.741 113.957,252.99 110.807,250.458 C 107.654,247.926 104.424,245.833 101.116,244.177 C 97.809,242.521 94.563,241.692 91.381,241.692 C 87.698,241.692 84.625,242.331 82.159,243.615 C 79.693,244.895 77.712,246.66 76.212,248.911 C 74.716,251.159 73.64,253.815 72.985,256.879 C 72.33,259.941 72,263.256 72,266.819 C 72,270.945 72.343,275.193 73.03,279.569 C 73.717,283.943 74.593,288.32 75.653,292.696 Z" marker-start="none" marker-end="none"/>
      <path d="M 246.787,286.602 C 247.724,290.414 249.175,294.462 251.14,298.746 C 253.106,303.026 255.681,307.354 258.863,311.73 C 262.048,316.104 265.869,320.384 270.332,324.574 C 274.793,328.761 279.959,332.668 285.825,336.295 C 286.763,336.855 288.198,337.466 290.134,338.122 C 292.067,338.781 294.064,339.169 296.125,339.296 C 298.559,341.92 301.835,343.232 305.954,343.232 C 310.822,343.232 314.926,342 318.265,339.531 C 321.604,337.06 324.366,333.7 326.549,329.449 C 327.236,328.076 327.878,326.731 328.469,325.419 C 329.063,324.107 329.561,322.715 329.969,321.246 C 330.373,319.777 330.701,318.201 330.951,316.512 C 331.199,314.823 331.324,312.916 331.324,310.791 C 331.324,305.855 330.544,300.822 328.983,295.696 C 327.423,290.571 325.207,285.57 322.337,280.695 C 319.466,275.82 315.986,271.148 311.898,266.678 C 307.81,262.208 303.27,258.192 298.277,254.631 C 294.906,252.192 291.178,250.3 287.09,248.958 C 283.002,247.611 278.43,246.94 273.376,246.943 C 268.569,246.94 264.405,247.579 260.876,248.863 C 257.35,250.142 254.416,251.972 252.078,254.349 C 249.734,256.724 247.988,259.568 246.834,262.881 C 245.679,266.193 245.101,269.881 245.101,273.945 C 245.101,277.882 245.663,282.1 246.787,286.602 Z M 262.327,285.383 C 261.952,283.946 261.688,282.586 261.531,281.306 C 261.377,280.024 261.297,278.788 261.297,277.602 C 261.297,275.537 261.563,273.618 262.093,271.836 C 262.623,270.055 263.48,268.521 264.668,267.24 C 265.853,265.958 267.336,264.957 269.115,264.24 C 270.894,263.52 273.062,263.163 275.621,263.163 C 280.363,263.163 284.781,264.366 288.869,266.771 C 292.956,269.179 296.591,272.196 299.776,275.82 C 302.958,279.447 305.627,283.338 307.778,287.493 C 309.933,291.651 311.445,295.478 312.321,298.977 C 312.881,301.166 313.365,303.231 313.77,305.167 C 314.177,307.105 314.38,308.887 314.38,310.512 C 314.38,312.138 314.084,313.653 313.49,315.059 C 312.899,316.464 312.135,318.043 311.198,319.793 C 310.636,320.856 310.074,321.966 309.512,323.121 C 308.95,324.278 308.449,325.417 308.013,326.542 C 307.515,325.667 306.985,324.902 306.423,324.246 C 305.861,323.59 305.02,322.997 303.896,322.465 C 302.772,321.934 301.241,321.448 299.308,321.012 C 297.372,320.574 294.845,320.197 291.724,319.886 C 289.665,319.197 287.575,318.136 285.452,316.699 C 283.33,315.261 281.256,313.573 279.226,311.636 C 277.2,309.697 275.264,307.604 273.421,305.353 C 271.581,303.102 269.927,300.806 268.46,298.462 C 266.993,296.121 265.712,293.821 264.62,291.571 C 263.528,289.32 262.764,287.258 262.327,285.383 Z" marker-start="none" marker-end="none"/>
      <path d="M 348.175,286.602 C 349.112,290.414 350.563,294.462 352.528,298.746 C 354.494,303.026 357.069,307.354 360.251,311.73 C 363.436,316.104 367.257,320.384 371.72,324.574 C 376.181,328.761 381.347,332.668 387.213,336.295 C 388.151,336.855 389.586,337.466 391.522,338.122 C 393.455,338.781 395.452,339.169 397.513,339.296 C 399.947,341.92 403.223,343.232 407.342,343.232 C 412.21,343.232 416.314,342 419.653,339.531 C 422.992,337.06 425.754,333.7 427.937,329.449 C 428.624,328.076 429.266,326.731 429.857,325.419 C 430.451,324.107 430.949,322.715 431.357,321.246 C 431.761,319.777 432.089,318.201 432.339,316.512 C 432.587,314.823 432.712,312.916 432.712,310.791 C 432.712,305.855 431.932,300.822 430.371,295.696 C 428.811,290.571 426.595,285.57 423.725,280.695 C 420.854,275.82 417.374,271.148 413.286,266.678 C 409.198,262.208 404.658,258.192 399.665,254.631 C 396.294,252.192 392.566,250.3 388.478,248.958 C 384.39,247.611 379.818,246.94 374.764,246.943 C 369.957,246.94 365.793,247.579 362.264,248.863 C 358.738,250.142 355.804,251.972 353.466,254.349 C 351.122,256.724 349.376,259.568 348.222,262.881 C 347.067,266.193 346.489,269.881 346.489,273.945 C 346.489,277.882 347.051,282.1 348.175,286.602 Z M 363.715,285.383 C 363.34,283.946 363.076,282.586 362.919,281.306 C 362.765,280.024 362.685,278.788 362.685,277.602 C 362.685,275.537 362.951,273.618 363.481,271.836 C 364.011,270.055 364.868,268.521 366.056,267.24 C 367.241,265.958 368.724,264.957 370.503,264.24 C 372.282,263.52 374.45,263.163 377.009,263.163 C 381.751,263.163 386.169,264.366 390.257,266.771 C 394.344,269.179 397.979,272.196 401.164,275.82 C 404.346,279.447 407.015,283.338 409.166,287.493 C 411.321,291.651 412.833,295.478 413.709,298.977 C 414.269,301.166 414.753,303.231 415.158,305.167 C 415.565,307.105 415.768,308.887 415.768,310.512 C 415.768,312.138 415.472,313.653 414.878,315.059 C 414.287,316.464 413.523,318.043 412.586,319.793 C 412.024,320.856 411.462,321.966 410.9,323.121 C 410.338,324.278 409.837,325.417 409.401,326.542 C 408.903,325.667 408.373,324.902 407.811,324.246 C 407.249,323.59 406.408,322.997 405.284,322.465 C 404.16,321.934 402.629,321.448 400.696,321.012 C 398.76,320.574 396.233,320.197 393.112,319.886 C 391.053,319.197 388.963,318.136 386.84,316.699 C 384.718,315.261 382.644,313.573 380.614,311.636 C 378.588,309.697 376.652,307.604 374.809,305.353 C 372.969,303.102 371.315,300.806 369.848,298.462 C 368.381,296.121 367.1,293.821 366.008,291.571 C 364.916,289.32 364.152,287.258 363.715,285.383 Z" marker-start="none" marker-end="none"/>
     </g>
    </g>
    <path d="M 184.673,449.908 C 70.617,394.796 24.436,325.777 25.261,245.524 C 29.384,146.009 82.993,104.295 183.596,84.214 L 173.449,123.114 C 171.596,125.563 171.373,128.754 172.861,131.409 C 174.354,134.06 177.32,135.743 180.57,135.773 C 183.82,135.805 186.826,134.186 188.377,131.563 L 234.391,62.884 C 234.502,62.713 234.502,62.511 234.609,62.336 C 234.866,61.846 235.069,61.339 235.214,60.819 C 235.394,60.294 235.51,59.752 235.566,59.205 C 235.566,59.004 235.69,58.827 235.69,58.626 C 235.643,58.326 235.579,58.035 235.498,57.744 C 235.437,57.198 235.317,56.656 235.146,56.132 C 234.965,55.654 234.733,55.189 234.46,54.746 C 234.211,54.302 233.92,53.885 233.581,53.495 C 233.186,53.081 232.749,52.703 232.273,52.366 C 232.011,52.18 231.844,51.924 231.552,51.754 L 156.749,9.54 C 152.649,7.462 147.496,8.706 145.035,12.367 C 142.579,16.025 143.68,20.815 147.539,23.247 L 175.35,50.508 C 64.401,63.175 1.345,150.021 3.819,251.944 C 7.119,355.352 87.111,433.316 173.7,463.813 C 174.279,463.916 182.37,465.831 182.958,465.835 C 187.456,465.819 191.212,462.688 191.662,458.578 C 192.116,454.47 189.115,450.714 184.716,449.877 Z M 184.673,449.908" stroke="none" stroke-width="0.998" fill-rule="evenodd" stroke-linejoin="miter" stroke-miterlimit="79.8403193612775" fill="url(#LinearGradient_1)"/>
    <g id="Group_2" fill-rule="nonzero" stroke-linejoin="round" stroke-linecap="round" stroke="none" stroke-width="0.515" fill="#f8ab26" stroke-miterlimit="79.8403193612775">
     <g id="Group_3">
      <path d="M 170.774,176.706 C 171.023,176.704 171.249,176.674 171.451,176.611 C 171.652,176.55 171.878,176.48 172.127,176.402 C 172.375,176.324 172.655,176.255 172.967,176.191 C 173.277,176.129 173.682,176.098 174.179,176.098 C 175.641,176.098 177.265,176.255 179.054,176.564 C 180.841,176.877 182.528,177.282 184.113,177.779 C 185.7,178.278 187.06,178.846 188.194,179.484 C 189.33,180.121 189.975,180.785 190.13,181.47 C 190.223,181.844 190.27,182.17 190.27,182.451 C 190.27,182.98 190.013,183.486 189.501,183.968 C 188.987,184.45 188.343,184.91 187.565,185.347 C 186.788,185.783 185.948,186.188 185.046,186.562 C 184.144,186.935 183.304,187.278 182.528,187.588 L 180.941,188.242 C 180.133,188.555 179.34,188.935 178.563,189.387 C 177.785,189.84 177.062,190.36 176.395,190.952 C 175.726,191.542 175.136,192.236 174.623,193.031 C 174.109,193.825 173.728,194.735 173.479,195.763 C 173.356,196.199 173.255,196.635 173.177,197.071 C 173.1,197.507 173.06,197.973 173.06,198.472 C 173.06,199.282 173.332,200.209 173.876,201.25 C 174.42,202.294 175.151,203.33 176.069,204.357 C 176.985,205.386 178.027,206.367 179.193,207.3 C 180.359,208.234 181.58,209.013 182.854,209.636 C 183.787,210.289 184.689,210.882 185.559,211.412 C 186.43,211.94 187.308,212.392 188.194,212.765 C 189.08,213.138 189.982,213.434 190.899,213.652 C 191.817,213.872 192.788,213.981 193.815,213.979 C 194.748,213.981 195.759,213.934 196.847,213.839 C 197.934,213.747 198.929,213.53 199.831,213.186 C 200.734,212.844 201.487,212.338 202.093,211.668 C 202.7,210.999 203.003,210.104 203.002,208.983 C 203.003,208.64 202.957,208.187 202.863,207.628 C 202.77,207.067 202.613,206.506 202.396,205.945 C 202.178,205.384 201.914,204.902 201.604,204.498 C 201.292,204.093 200.919,203.891 200.484,203.891 C 199.769,203.891 199.179,204.03 198.712,204.311 C 198.246,204.591 197.826,204.895 197.453,205.222 C 197.079,205.549 196.69,205.852 196.287,206.132 C 195.882,206.413 195.385,206.554 194.794,206.554 C 194.079,206.554 193.247,206.421 192.299,206.157 C 191.35,205.892 190.379,205.533 189.384,205.081 C 188.389,204.63 187.417,204.109 186.468,203.516 C 185.52,202.925 184.665,202.318 183.904,201.695 C 183.142,201.072 182.528,200.458 182.061,199.85 C 181.595,199.244 181.362,198.691 181.362,198.192 C 181.362,197.663 181.533,197.226 181.875,196.884 C 182.216,196.542 182.651,196.247 183.181,195.996 C 183.864,195.622 184.649,195.25 185.536,194.875 C 186.422,194.502 187.316,194.128 188.218,193.755 C 189.12,193.382 189.998,193.006 190.853,192.633 C 191.708,192.258 192.447,191.917 193.068,191.606 C 193.908,191.171 194.662,190.741 195.33,190.322 C 195.999,189.901 196.567,189.442 197.032,188.943 C 197.499,188.445 197.856,187.885 198.106,187.262 C 198.354,186.64 198.478,185.908 198.478,185.067 C 198.478,184.662 198.448,184.256 198.385,183.853 C 198.323,183.447 198.229,182.98 198.106,182.451 C 198.011,181.984 197.848,181.438 197.616,180.816 C 197.383,180.192 197.134,179.579 196.869,178.971 C 196.605,178.364 196.333,177.818 196.053,177.335 C 195.773,176.853 195.54,176.535 195.354,176.378 C 194.142,175.258 192.711,174.206 191.062,173.226 C 189.415,172.245 187.697,171.388 185.91,170.656 C 184.121,169.926 182.333,169.341 180.546,168.906 C 178.758,168.468 177.118,168.251 175.626,168.251 C 174.879,168.251 174.055,168.398 173.153,168.694 C 172.252,168.99 171.42,169.38 170.657,169.862 C 169.896,170.345 169.258,170.897 168.746,171.521 C 168.232,172.143 167.976,172.766 167.976,173.389 C 167.976,173.701 168.069,174.051 168.256,174.44 C 168.442,174.83 168.675,175.187 168.955,175.514 C 169.235,175.841 169.539,176.121 169.865,176.354 C 170.192,176.588 170.494,176.704 170.774,176.706 Z" marker-start="none" marker-end="none"/>
      <path d="M 208.879,146.859 C 208.413,146.859 207.993,146.982 207.618,147.231 C 207.246,147.481 206.927,147.808 206.663,148.211 C 206.399,148.617 206.19,149.06 206.033,149.543 C 205.878,150.027 205.8,150.501 205.8,150.968 C 205.8,151.561 205.878,152.075 206.033,152.51 C 206.19,152.945 206.383,153.327 206.617,153.654 C 206.849,153.981 207.098,154.238 207.362,154.425 C 207.628,154.611 207.868,154.751 208.085,154.845 C 208.831,155.031 209.703,155.234 210.698,155.453 C 211.693,155.67 212.772,155.988 213.939,156.409 C 215.105,156.83 216.349,157.375 217.67,158.046 C 218.992,158.715 220.352,159.594 221.751,160.684 C 223.151,161.775 224.619,163.043 226.158,164.489 C 227.697,165.939 229.183,167.635 230.613,169.582 C 232.043,171.529 233.379,173.754 234.624,176.263 C 235.867,178.769 236.893,181.641 237.701,184.879 C 237.111,184.225 236.434,183.486 235.673,182.661 C 234.911,181.836 234.096,180.996 233.224,180.139 C 232.354,179.283 231.452,178.457 230.519,177.663 C 229.586,176.867 228.654,176.151 227.721,175.514 C 226.788,174.876 225.878,174.37 224.992,173.997 C 224.106,173.624 223.274,173.437 222.497,173.437 C 220.414,173.437 218.643,173.91 217.181,174.861 C 215.719,175.81 214.366,177.375 213.123,179.555 C 212.78,180.177 212.516,180.987 212.329,181.983 C 212.144,182.979 212.049,183.992 212.049,185.019 C 212.049,186.701 212.128,188.337 212.283,189.924 C 212.438,191.513 212.672,193.164 212.982,194.875 C 213.294,196.589 213.659,198.387 214.079,200.271 C 214.498,202.155 214.973,204.234 215.501,206.506 C 215.533,207.099 215.58,207.658 215.641,208.187 C 215.703,208.624 215.741,209.044 215.757,209.448 C 215.773,209.854 215.797,210.104 215.828,210.197 C 215.89,210.728 216.068,211.224 216.364,211.691 C 216.659,212.159 217.018,212.563 217.437,212.905 C 217.856,213.247 218.307,213.512 218.789,213.699 C 219.272,213.886 219.745,213.981 220.212,213.979 C 220.865,213.981 221.518,213.926 222.17,213.816 C 222.823,213.709 223.336,213.466 223.709,213.092 C 224.239,212.531 224.635,211.799 224.899,210.898 C 225.163,209.993 225.296,209.184 225.296,208.468 C 225.296,208.187 225.163,207.628 224.899,206.786 C 224.635,205.945 224.255,205.073 223.757,204.171 C 223.01,201.368 222.404,198.994 221.937,197.047 C 221.471,195.101 221.105,193.482 220.841,192.19 C 220.577,190.897 220.391,189.869 220.281,189.108 C 220.174,188.345 220.119,187.759 220.118,187.355 C 220.119,185.674 220.399,184.335 220.958,183.338 C 221.518,182.341 222.201,181.844 223.01,181.844 C 223.476,181.844 224.013,181.938 224.619,182.124 C 225.226,182.311 225.87,182.622 226.555,183.058 C 229.167,184.678 231.413,186.445 233.294,188.36 C 235.175,190.276 236.793,192.393 238.144,194.711 C 239.498,197.032 240.664,199.579 241.643,202.349 C 242.622,205.122 243.516,208.173 244.324,211.504 C 244.388,211.721 244.535,211.94 244.767,212.159 C 245.001,212.377 245.281,212.563 245.607,212.718 C 245.933,212.874 246.283,213.007 246.656,213.115 C 247.03,213.225 247.387,213.279 247.729,213.279 C 249.377,213.279 250.644,212.836 251.53,211.948 C 252.417,211.061 252.86,209.87 252.86,208.375 C 252.86,207.815 252.72,206.912 252.44,205.667 C 252.16,204.42 251.834,203.105 251.46,201.718 C 251.087,200.332 250.706,199.01 250.318,197.748 C 249.929,196.488 249.625,195.56 249.408,194.97 L 247.17,188.475 C 246.144,185.55 245.218,182.856 244.394,180.395 C 243.57,177.935 242.692,175.637 241.76,173.505 C 240.826,171.372 239.776,169.357 238.611,167.457 C 237.445,165.558 236.039,163.704 234.39,161.898 C 232.742,160.091 230.783,158.278 228.513,156.456 C 226.243,154.634 223.538,152.742 220.398,150.781 C 218.47,149.629 216.581,148.686 214.732,147.955 C 212.881,147.223 210.931,146.859 208.879,146.859 Z" marker-start="none" marker-end="none"/>
      <path d="M 292.691,206.786 C 291.602,206.786 290.436,206.53 289.193,206.015 C 287.948,205.503 286.659,204.809 285.321,203.938 C 283.984,203.065 282.623,202.076 281.241,200.971 C 279.857,199.865 278.497,198.721 277.16,197.537 C 276.475,196.947 275.823,196.408 275.201,195.926 C 274.58,195.443 273.957,195.077 273.335,194.829 C 272.9,194.113 272.441,193.17 271.96,192.002 C 271.477,190.834 271.003,189.558 270.536,188.174 C 270.07,186.786 269.627,185.37 269.207,183.921 C 268.788,182.475 268.437,181.128 268.157,179.881 C 268.002,179.228 267.877,178.59 267.785,177.967 C 267.69,177.345 267.582,176.683 267.458,175.982 C 267.334,175.281 267.186,174.526 267.015,173.716 C 266.844,172.906 266.634,172.004 266.385,171.008 C 266.23,170.415 265.98,169.94 265.639,169.582 C 265.297,169.223 264.94,168.952 264.566,168.764 C 264.193,168.577 263.835,168.46 263.494,168.414 C 263.152,168.368 262.888,168.344 262.701,168.344 C 261.519,168.344 260.554,168.625 259.809,169.186 C 259.062,169.746 258.689,170.837 258.69,172.454 C 258.689,172.891 258.705,173.351 258.737,173.833 C 258.767,174.316 258.86,174.853 259.017,175.443 C 259.7,178.403 260.361,181.065 260.999,183.432 C 261.636,185.799 262.282,187.994 262.934,190.017 C 263.587,192.042 264.248,193.95 264.916,195.74 C 265.585,197.53 266.268,199.337 266.969,201.158 C 267.668,202.979 268.399,204.863 269.16,206.81 C 269.922,208.756 270.738,210.913 271.609,213.279 C 271.795,213.808 272.285,214.252 273.078,214.611 C 273.871,214.97 274.719,215.149 275.62,215.147 C 276.802,215.149 277.774,214.884 278.536,214.353 C 279.297,213.824 279.678,213.062 279.678,212.065 C 279.678,211.97 279.646,211.799 279.585,211.55 C 279.523,211.301 279.43,211.036 279.305,210.757 L 277.253,205.899 C 278.558,206.926 279.919,207.954 281.334,208.983 C 282.749,210.01 284.202,210.936 285.694,211.761 C 287.187,212.586 288.687,213.255 290.196,213.77 C 291.703,214.284 293.187,214.539 294.649,214.539 C 297.634,214.539 299.966,213.739 301.646,212.136 C 303.324,210.532 304.164,208.048 304.164,204.684 C 304.164,202.754 303.83,200.558 303.161,198.098 C 302.492,195.637 301.652,192.998 300.643,190.18 C 299.632,187.363 298.544,184.405 297.378,181.308 C 296.212,178.209 295.131,175.055 294.136,171.846 C 293.856,170.976 293.569,170.244 293.273,169.652 C 292.979,169.061 292.629,168.585 292.224,168.228 C 291.819,167.869 291.346,167.612 290.802,167.457 C 290.258,167.303 289.597,167.223 288.82,167.223 C 287.607,167.223 286.768,167.449 286.301,167.901 C 285.835,168.352 285.601,169.076 285.601,170.072 C 285.601,170.944 285.734,172.012 285.998,173.273 C 286.262,174.534 286.635,175.919 287.116,177.43 C 287.599,178.939 288.159,180.551 288.796,182.263 C 289.434,183.977 290.125,185.721 290.871,187.495 C 291.463,188.927 292.046,190.36 292.621,191.792 C 293.196,193.225 293.709,194.611 294.16,195.95 C 294.611,197.289 294.977,198.566 295.255,199.78 C 295.535,200.995 295.675,202.116 295.676,203.142 C 295.675,204.109 295.465,204.958 295.046,205.689 C 294.627,206.421 293.841,206.786 292.691,206.786 Z" marker-start="none" marker-end="none"/>
      <path d="M 312.466,186.701 C 313.056,189.1 313.935,191.606 315.101,194.221 C 316.267,196.837 317.674,199.367 319.322,201.812 C 320.971,204.257 322.844,206.514 324.942,208.585 C 327.042,210.655 329.334,212.346 331.822,213.652 C 332.63,214.089 333.516,214.417 334.48,214.634 C 335.443,214.852 336.424,214.962 337.419,214.962 C 338.446,214.962 339.401,214.868 340.287,214.681 C 341.173,214.495 341.935,214.182 342.571,213.747 C 343.208,213.31 343.714,212.749 344.088,212.065 C 344.461,211.379 344.648,210.54 344.648,209.544 C 344.648,208.797 344.539,208.04 344.321,207.276 C 344.104,206.514 343.777,205.83 343.342,205.222 C 342.907,204.615 342.363,204.123 341.709,203.751 C 341.056,203.378 340.294,203.191 339.423,203.19 C 338.739,203.191 338.11,203.316 337.536,203.565 C 336.96,203.814 336.408,204.093 335.88,204.403 C 335.6,204.591 335.336,204.755 335.087,204.894 C 334.838,205.034 334.543,205.167 334.2,205.291 C 332.956,204.731 331.782,203.991 330.679,203.073 C 329.574,202.155 328.549,201.136 327.6,200.014 C 326.653,198.892 325.783,197.694 324.989,196.418 C 324.196,195.141 323.48,193.864 322.843,192.587 C 322.205,191.31 321.661,190.057 321.211,188.828 C 320.76,187.596 320.395,186.469 320.115,185.44 C 319.898,184.693 319.703,183.845 319.532,182.895 C 319.36,181.945 319.276,181.019 319.276,180.116 C 319.276,179.493 319.33,178.901 319.439,178.34 C 319.548,177.779 319.741,177.281 320.021,176.845 C 320.301,176.41 320.675,176.069 321.141,175.818 C 321.608,175.57 322.182,175.445 322.867,175.443 C 323.955,175.445 325.036,175.585 326.108,175.864 C 327.181,176.145 328.23,176.504 329.256,176.939 C 330.283,177.375 331.286,177.882 332.265,178.457 C 333.245,179.034 334.2,179.617 335.133,180.208 C 335.723,180.583 336.315,180.973 336.905,181.376 C 337.497,181.781 338.057,182.14 338.585,182.451 C 339.114,182.763 339.604,183.019 340.054,183.221 C 340.505,183.424 340.901,183.524 341.244,183.524 C 341.71,183.524 342.146,183.408 342.549,183.175 C 342.954,182.942 343.155,182.544 343.155,181.983 C 343.155,181.577 343.062,181.128 342.875,180.629 C 342.44,179.415 341.848,178.324 341.103,177.359 C 340.356,176.393 339.524,175.531 338.607,174.767 C 337.689,174.005 336.71,173.327 335.669,172.735 C 334.628,172.143 333.594,171.598 332.567,171.101 C 330.641,170.073 328.689,169.303 326.714,168.788 C 324.74,168.274 323.084,168.018 321.747,168.018 C 321.312,168.018 320.799,168.064 320.208,168.157 C 319.617,168.252 319.104,168.392 318.669,168.577 C 316.151,169.668 314.317,171.131 313.165,172.969 C 312.015,174.806 311.439,176.985 311.44,179.508 C 311.439,180.596 311.525,181.743 311.696,182.942 C 311.868,184.142 312.124,185.394 312.466,186.701 Z" marker-start="none" marker-end="none"/>
     </g>
    </g>
    <path d="M 1.101,499.048 L 1.101,-0.451 L 500.6,-0.451 L 500.6,499.048 L 1.101,499.048 Z" stroke-opacity="0.000000" stroke="none" stroke-width="0.5" stroke-linecap="round" fill="#000000" stroke-linejoin="miter" marker-start="none" marker-end="none" stroke-miterlimit="79.8403193612775" fill-opacity="0.000000"/>
   </g>
  </g>
 </g>
</svg>
