<?xml version="1.0" standalone="no"?>
<!DOCTYPE svg PUBLIC "-//W3C//DTD SVG 1.1//EN" "http://www.w3.org/Graphics/SVG/1.1/DTD/svg11.dtd">
<!--Generator: Xara Designer (www.xara.com), SVG filter version: 6.0.0.4-->
<svg stroke-width="0.501" stroke-linejoin="bevel" fill-rule="evenodd" xmlns:xlink="http://www.w3.org/1999/xlink" xmlns="http://www.w3.org/2000/svg" version="1.1" overflow="visible" width="498.999pt" height="498.999pt" viewBox="0 0 498.999 498.999">
 <defs>
	</defs>
 <g id="Document" fill="none" stroke="black" font-family="Times New Roman" font-size="16" transform="scale(1 -1)">
  <g id="Spread" transform="translate(0 -498.999)">
   <g id="Layer 1">
    <path d="M 312.241,69.738 C 426.297,122.869 472.478,189.407 471.653,266.776 C 467.53,362.714 413.921,402.929 313.318,422.288 L 323.465,384.786 C 325.318,382.425 325.541,379.348 324.053,376.789 C 322.56,374.234 319.594,372.612 316.344,372.582 C 313.094,372.552 310.088,374.112 308.537,376.64 L 262.523,442.852 C 262.412,443.016 262.412,443.211 262.305,443.38 C 262.048,443.852 261.845,444.341 261.7,444.842 C 261.52,445.347 261.404,445.871 261.348,446.398 C 261.348,446.592 261.224,446.763 261.224,446.956 C 261.271,447.246 261.335,447.526 261.416,447.807 C 261.477,448.332 261.597,448.855 261.768,449.361 C 261.949,449.822 262.181,450.27 262.454,450.696 C 262.703,451.125 262.994,451.527 263.333,451.902 C 263.728,452.302 264.165,452.666 264.641,452.992 C 264.903,453.171 265.07,453.418 265.362,453.581 L 340.165,494.278 C 344.265,496.281 349.418,495.082 351.879,491.552 C 354.335,488.026 353.234,483.409 349.375,481.064 L 321.564,454.782 C 432.513,442.571 495.569,358.846 493.095,260.586 C 489.795,160.895 409.803,85.733 323.214,56.332 C 322.635,56.233 314.544,54.387 313.956,54.383 C 309.458,54.398 305.702,57.416 305.252,61.379 C 304.798,65.339 307.799,68.96 312.198,69.768 Z M 312.241,69.738" fill="#ffffff" stroke="none" stroke-width="0.998" fill-rule="evenodd" stroke-linejoin="miter" stroke-miterlimit="79.8403193612775"/>
    <path d="M 184.673,449.707 C 70.617,394.678 24.436,325.762 25.261,245.63 C 29.384,146.264 82.993,104.612 183.596,84.561 L 173.449,123.403 C 171.596,125.849 171.373,129.035 172.861,131.686 C 174.354,134.332 177.32,136.013 180.57,136.044 C 183.82,136.075 186.826,134.459 188.377,131.84 L 234.391,63.263 C 234.502,63.093 234.502,62.891 234.609,62.716 C 234.866,62.227 235.069,61.721 235.214,61.202 C 235.394,60.678 235.51,60.136 235.566,59.59 C 235.566,59.389 235.69,59.212 235.69,59.012 C 235.643,58.712 235.579,58.422 235.498,58.131 C 235.437,57.587 235.317,57.045 235.146,56.522 C 234.965,56.044 234.733,55.58 234.46,55.138 C 234.211,54.694 233.92,54.278 233.581,53.889 C 233.186,53.475 232.749,53.098 232.273,52.761 C 232.011,52.575 231.844,52.32 231.552,52.151 L 156.749,10 C 152.649,7.925 147.496,9.167 145.035,12.823 C 142.579,16.475 143.68,21.257 147.539,23.686 L 175.35,50.906 C 64.401,63.554 1.345,150.27 3.819,252.04 C 7.119,355.293 87.111,433.14 173.7,463.591 C 174.279,463.694 182.37,465.606 182.958,465.61 C 187.456,465.594 191.212,462.468 191.662,458.364 C 192.116,454.263 189.115,450.512 184.716,449.676 Z M 184.673,449.707" fill="#ffffff" stroke="none" stroke-width="0.998" fill-rule="evenodd" stroke-linejoin="miter" stroke-miterlimit="79.8403193612775"/>
    <g id="Group" fill="#ffffff" fill-rule="nonzero" stroke-linejoin="round" stroke-linecap="round" stroke="none" stroke-width="0.909" stroke-miterlimit="79.8403193612775">
     <g id="Group_1">
      <path d="M 99.412,233.835 C 99.851,233.832 100.25,233.779 100.606,233.668 C 100.961,233.56 101.36,233.437 101.799,233.299 C 102.236,233.163 102.73,233.04 103.281,232.929 C 103.828,232.819 104.542,232.765 105.419,232.765 C 107.998,232.765 110.863,233.04 114.019,233.587 C 117.172,234.137 120.148,234.85 122.944,235.727 C 125.743,236.605 128.143,237.605 130.143,238.729 C 132.147,239.851 133.285,241.019 133.558,242.227 C 133.723,242.885 133.805,243.461 133.805,243.955 C 133.805,244.888 133.352,245.779 132.449,246.627 C 131.542,247.477 130.406,248.287 129.034,249.056 C 127.663,249.824 126.181,250.538 124.59,251.196 C 122.998,251.853 121.517,252.458 120.148,253.004 L 117.348,254.156 C 115.923,254.707 114.524,255.377 113.153,256.173 C 111.78,256.97 110.505,257.888 109.328,258.928 C 108.148,259.969 107.107,261.192 106.202,262.591 C 105.295,263.99 104.623,265.593 104.184,267.403 C 103.967,268.171 103.789,268.94 103.651,269.707 C 103.515,270.476 103.445,271.297 103.445,272.175 C 103.445,273.602 103.925,275.234 104.884,277.071 C 105.844,278.909 107.134,280.733 108.753,282.543 C 110.369,284.355 112.207,286.082 114.264,287.726 C 116.321,289.372 118.475,290.743 120.723,291.842 C 122.369,292.992 123.96,294.035 125.495,294.968 C 127.031,295.899 128.58,296.695 130.143,297.353 C 131.706,298.011 133.297,298.531 134.915,298.916 C 136.535,299.302 138.248,299.495 140.059,299.491 C 141.705,299.495 143.489,299.412 145.408,299.246 C 147.326,299.082 149.081,298.699 150.672,298.094 C 152.265,297.491 153.594,296.6 154.663,295.419 C 155.734,294.243 156.268,292.666 156.266,290.69 C 156.268,290.086 156.187,289.289 156.021,288.303 C 155.857,287.315 155.58,286.327 155.197,285.339 C 154.813,284.351 154.347,283.503 153.8,282.79 C 153.25,282.077 152.592,281.721 151.824,281.721 C 150.563,281.721 149.522,281.966 148.698,282.46 C 147.876,282.954 147.135,283.49 146.477,284.065 C 145.817,284.642 145.131,285.175 144.42,285.669 C 143.706,286.163 142.829,286.412 141.786,286.412 C 140.525,286.412 139.057,286.177 137.385,285.711 C 135.711,285.246 133.998,284.614 132.242,283.819 C 130.487,283.023 128.772,282.106 127.098,281.061 C 125.426,280.02 123.918,278.95 122.575,277.852 C 121.231,276.757 120.148,275.674 119.324,274.604 C 118.502,273.535 118.091,272.562 118.091,271.683 C 118.091,270.75 118.392,269.982 118.996,269.377 C 119.597,268.776 120.365,268.255 121.3,267.814 C 122.504,267.156 123.889,266.5 125.454,265.84 C 127.017,265.182 128.594,264.524 130.185,263.866 C 131.777,263.208 133.326,262.548 134.834,261.89 C 136.342,261.231 137.646,260.629 138.741,260.082 C 140.223,259.315 141.554,258.558 142.732,257.819 C 143.912,257.078 144.914,256.27 145.734,255.391 C 146.558,254.515 147.188,253.527 147.629,252.429 C 148.067,251.334 148.285,250.044 148.285,248.562 C 148.285,247.85 148.233,247.135 148.121,246.424 C 148.012,245.71 147.846,244.888 147.629,243.955 C 147.462,243.132 147.174,242.171 146.765,241.074 C 146.354,239.976 145.914,238.895 145.447,237.826 C 144.981,236.755 144.501,235.794 144.007,234.943 C 143.513,234.095 143.102,233.534 142.774,233.259 C 140.636,231.285 138.112,229.432 135.203,227.705 C 132.297,225.976 129.266,224.468 126.114,223.178 C 122.958,221.892 119.804,220.862 116.651,220.095 C 113.497,219.324 110.604,218.941 107.972,218.941 C 106.654,218.941 105.2,219.2 103.609,219.722 C 102.019,220.245 100.552,220.931 99.206,221.779 C 97.863,222.63 96.738,223.604 95.834,224.701 C 94.928,225.798 94.476,226.895 94.476,227.993 C 94.476,228.541 94.64,229.159 94.97,229.845 C 95.298,230.53 95.709,231.159 96.203,231.736 C 96.697,232.311 97.233,232.805 97.808,233.216 C 98.385,233.627 98.918,233.832 99.412,233.835 Z" marker-start="none" marker-end="none"/>
      <path d="M 166.634,181.259 C 165.812,181.259 165.071,181.478 164.41,181.915 C 163.753,182.356 163.191,182.932 162.725,183.643 C 162.259,184.357 161.89,185.138 161.613,185.989 C 161.34,186.841 161.202,187.675 161.202,188.499 C 161.202,189.542 161.34,190.447 161.613,191.214 C 161.89,191.982 162.231,192.654 162.644,193.229 C 163.053,193.806 163.492,194.257 163.958,194.587 C 164.427,194.915 164.851,195.162 165.233,195.328 C 166.549,195.656 168.088,196.013 169.843,196.399 C 171.598,196.78 173.502,197.341 175.561,198.084 C 177.618,198.823 179.812,199.784 182.143,200.964 C 184.475,202.145 186.874,203.694 189.342,205.613 C 191.812,207.534 194.401,209.769 197.116,212.317 C 199.831,214.869 202.453,217.858 204.976,221.285 C 207.498,224.715 209.855,228.637 212.052,233.054 C 214.244,237.47 216.054,242.529 217.48,248.233 C 216.439,247.081 215.245,245.779 213.902,244.325 C 212.558,242.871 211.12,241.391 209.582,239.883 C 208.047,238.375 206.456,236.919 204.81,235.52 C 203.164,234.12 201.52,232.858 199.874,231.736 C 198.228,230.611 196.623,229.72 195.06,229.064 C 193.496,228.405 192.029,228.076 190.658,228.076 C 186.983,228.076 183.859,228.91 181.28,230.584 C 178.701,232.257 176.314,235.014 174.121,238.853 C 173.516,239.95 173.05,241.375 172.72,243.131 C 172.394,244.886 172.226,246.67 172.226,248.478 C 172.226,251.441 172.366,254.322 172.639,257.118 C 172.913,259.918 173.325,262.825 173.872,265.84 C 174.423,268.859 175.067,272.025 175.808,275.344 C 176.547,278.662 177.385,282.324 178.316,286.327 C 178.373,287.371 178.456,288.358 178.563,289.289 C 178.673,290.058 178.74,290.797 178.768,291.51 C 178.796,292.225 178.838,292.666 178.893,292.828 C 179.002,293.763 179.316,294.64 179.839,295.462 C 180.359,296.286 180.992,296.997 181.732,297.6 C 182.471,298.201 183.266,298.667 184.117,298.997 C 184.969,299.327 185.803,299.495 186.627,299.491 C 187.779,299.495 188.931,299.398 190.081,299.203 C 191.233,299.015 192.138,298.588 192.796,297.928 C 193.731,296.94 194.43,295.651 194.895,294.063 C 195.361,292.47 195.596,291.044 195.596,289.783 C 195.596,289.289 195.361,288.303 194.895,286.821 C 194.43,285.339 193.759,283.804 192.881,282.215 C 191.563,277.277 190.494,273.094 189.67,269.667 C 188.848,266.239 188.202,263.386 187.737,261.109 C 187.271,258.833 186.943,257.023 186.749,255.681 C 186.56,254.336 186.463,253.306 186.461,252.593 C 186.463,249.633 186.957,247.273 187.943,245.518 C 188.931,243.762 190.136,242.885 191.563,242.885 C 192.385,242.885 193.332,243.051 194.401,243.379 C 195.472,243.709 196.608,244.256 197.817,245.024 C 202.425,247.878 206.387,250.99 209.705,254.363 C 213.024,257.738 215.878,261.467 218.261,265.551 C 220.65,269.64 222.707,274.125 224.434,279.004 C 226.161,283.889 227.738,289.264 229.164,295.132 C 229.277,295.515 229.536,295.899 229.945,296.284 C 230.358,296.668 230.852,296.997 231.427,297.27 C 232.002,297.545 232.62,297.778 233.278,297.97 C 233.937,298.163 234.567,298.258 235.17,298.258 C 238.078,298.258 240.313,297.476 241.876,295.913 C 243.441,294.35 244.222,292.253 244.222,289.621 C 244.222,288.633 243.975,287.042 243.481,284.849 C 242.987,282.652 242.412,280.336 241.752,277.895 C 241.094,275.453 240.422,273.123 239.738,270.902 C 239.052,268.681 238.515,267.047 238.132,266.006 L 234.184,254.568 C 232.374,249.413 230.741,244.669 229.287,240.335 C 227.833,236 226.285,231.953 224.64,228.197 C 222.993,224.44 221.14,220.89 219.085,217.544 C 217.028,214.197 214.548,210.932 211.639,207.751 C 208.732,204.569 205.276,201.374 201.271,198.165 C 197.266,194.956 192.494,191.623 186.955,188.169 C 183.554,186.139 180.221,184.479 176.96,183.191 C 173.694,181.901 170.254,181.259 166.634,181.259 Z" marker-start="none" marker-end="none"/>
      <path d="M 314.489,286.821 C 312.568,286.821 310.511,286.369 308.318,285.463 C 306.122,284.559 303.848,283.339 301.488,281.804 C 299.129,280.266 296.728,278.524 294.29,276.577 C 291.848,274.629 289.449,272.615 287.091,270.529 C 285.882,269.489 284.732,268.539 283.635,267.691 C 282.539,266.841 281.44,266.197 280.343,265.757 C 279.575,264.496 278.766,262.836 277.917,260.779 C 277.065,258.722 276.229,256.473 275.405,254.035 C 274.583,251.591 273.801,249.097 273.06,246.546 C 272.321,243.997 271.702,241.624 271.208,239.428 C 270.935,238.278 270.714,237.154 270.552,236.057 C 270.384,234.961 270.194,233.795 269.975,232.56 C 269.756,231.325 269.495,229.995 269.193,228.57 C 268.892,227.141 268.521,225.553 268.082,223.798 C 267.809,222.755 267.368,221.917 266.766,221.285 C 266.163,220.656 265.533,220.176 264.873,219.846 C 264.215,219.516 263.584,219.31 262.982,219.229 C 262.379,219.147 261.913,219.107 261.583,219.107 C 259.498,219.107 257.795,219.601 256.481,220.589 C 255.163,221.577 254.505,223.496 254.507,226.345 C 254.505,227.116 254.534,227.926 254.59,228.774 C 254.643,229.625 254.807,230.57 255.084,231.611 C 256.289,236.824 257.455,241.513 258.58,245.682 C 259.704,249.852 260.844,253.719 261.994,257.283 C 263.146,260.85 264.312,264.21 265.491,267.363 C 266.671,270.517 267.876,273.698 269.112,276.907 C 270.345,280.116 271.635,283.434 272.978,286.863 C 274.322,290.291 275.761,294.089 277.298,298.258 C 277.626,299.189 278.49,299.971 279.889,300.604 C 281.288,301.236 282.784,301.552 284.374,301.548 C 286.459,301.552 288.174,301.086 289.518,300.151 C 290.86,299.219 291.533,297.875 291.533,296.12 C 291.533,295.952 291.476,295.651 291.369,295.213 C 291.259,294.774 291.095,294.308 290.875,293.816 L 287.255,285.258 C 289.557,287.066 291.958,288.878 294.454,290.69 C 296.95,292.498 299.514,294.13 302.146,295.583 C 304.779,297.037 307.426,298.216 310.088,299.122 C 312.746,300.027 315.364,300.479 317.943,300.479 C 323.209,300.479 327.323,299.068 330.287,296.243 C 333.247,293.419 334.729,289.044 334.729,283.118 C 334.729,279.719 334.14,275.85 332.96,271.517 C 331.779,267.183 330.298,262.534 328.518,257.57 C 326.734,252.608 324.815,247.398 322.758,241.94 C 320.701,236.482 318.794,230.926 317.038,225.276 C 316.544,223.741 316.038,222.453 315.516,221.409 C 314.997,220.368 314.38,219.53 313.665,218.9 C 312.951,218.269 312.116,217.817 311.157,217.544 C 310.197,217.27 309.031,217.131 307.66,217.131 C 305.52,217.131 304.04,217.53 303.216,218.325 C 302.394,219.119 301.982,220.395 301.982,222.15 C 301.982,223.686 302.216,225.567 302.682,227.788 C 303.148,230.009 303.806,232.449 304.654,235.111 C 305.506,237.769 306.494,240.608 307.618,243.625 C 308.743,246.643 309.962,249.714 311.278,252.84 C 312.323,255.363 313.351,257.888 314.366,260.41 C 315.38,262.933 316.285,265.375 317.081,267.733 C 317.876,270.092 318.522,272.341 319.012,274.479 C 319.506,276.619 319.753,278.595 319.755,280.403 C 319.753,282.106 319.383,283.6 318.644,284.888 C 317.905,286.177 316.518,286.821 314.489,286.821 Z" marker-start="none" marker-end="none"/>
      <path d="M 349.375,251.441 C 350.416,255.667 351.966,260.082 354.023,264.688 C 356.08,269.296 358.562,273.752 361.47,278.059 C 364.379,282.365 367.683,286.341 371.384,289.989 C 375.089,293.636 379.132,296.614 383.521,298.916 C 384.947,299.685 386.51,300.262 388.21,300.645 C 389.909,301.029 391.64,301.222 393.395,301.222 C 395.207,301.222 396.892,301.058 398.455,300.728 C 400.018,300.4 401.362,299.849 402.484,299.082 C 403.608,298.313 404.5,297.325 405.16,296.12 C 405.818,294.911 406.148,293.433 406.148,291.678 C 406.148,290.362 405.956,289.03 405.571,287.684 C 405.188,286.341 404.611,285.136 403.844,284.065 C 403.077,282.996 402.117,282.13 400.963,281.474 C 399.811,280.816 398.467,280.488 396.93,280.486 C 395.724,280.488 394.614,280.708 393.602,281.146 C 392.585,281.585 391.612,282.077 390.68,282.624 C 390.186,282.954 389.72,283.242 389.281,283.489 C 388.842,283.734 388.321,283.968 387.716,284.187 C 385.522,283.201 383.451,281.897 381.505,280.28 C 379.556,278.662 377.747,276.868 376.073,274.892 C 374.403,272.916 372.868,270.806 371.467,268.557 C 370.068,266.308 368.805,264.059 367.681,261.809 C 366.556,259.56 365.596,257.351 364.802,255.187 C 364.007,253.019 363.363,251.032 362.869,249.22 C 362.486,247.904 362.142,246.41 361.84,244.736 C 361.537,243.064 361.389,241.432 361.389,239.841 C 361.389,238.745 361.484,237.701 361.676,236.713 C 361.868,235.727 362.209,234.848 362.703,234.081 C 363.197,233.313 363.857,232.712 364.679,232.271 C 365.502,231.833 366.515,231.614 367.724,231.611 C 369.643,231.614 371.55,231.86 373.441,232.354 C 375.334,232.848 377.185,233.479 378.995,234.245 C 380.806,235.014 382.576,235.907 384.303,236.919 C 386.032,237.935 387.716,238.962 389.362,240.005 C 390.403,240.664 391.448,241.351 392.488,242.062 C 393.533,242.774 394.521,243.408 395.452,243.955 C 396.385,244.505 397.25,244.957 398.044,245.313 C 398.839,245.667 399.538,245.846 400.143,245.846 C 400.965,245.846 401.734,245.639 402.445,245.23 C 403.16,244.819 403.514,244.119 403.514,243.131 C 403.514,242.416 403.35,241.624 403.02,240.746 C 402.253,238.607 401.208,236.686 399.894,234.986 C 398.576,233.285 397.109,231.764 395.491,230.42 C 393.871,229.078 392.144,227.883 390.308,226.839 C 388.471,225.798 386.647,224.838 384.836,223.962 C 381.438,222.152 377.994,220.795 374.51,219.888 C 371.028,218.983 368.106,218.532 365.748,218.532 C 364.98,218.532 364.075,218.613 363.033,218.777 C 361.99,218.943 361.085,219.19 360.318,219.516 C 355.876,221.437 352.64,224.016 350.608,227.252 C 348.579,230.489 347.563,234.326 347.565,238.772 C 347.563,240.689 347.715,242.707 348.016,244.819 C 348.32,246.932 348.772,249.139 349.375,251.441 Z" marker-start="none" marker-end="none"/>
     </g>
    </g>
   </g>
  </g>
 </g>
</svg>
